<?xml version="1.0" encoding="UTF-8" standalone="no"?>
<!-- Created with Inkscape (http://www.inkscape.org/) -->

<svg
   xmlns:dc="http://purl.org/dc/elements/1.1/"
   xmlns:cc="http://creativecommons.org/ns#"
   xmlns:rdf="http://www.w3.org/1999/02/22-rdf-syntax-ns#"
   xmlns:svg="http://www.w3.org/2000/svg"
   xmlns="http://www.w3.org/2000/svg"
   xmlns:sodipodi="http://sodipodi.sourceforge.net/DTD/sodipodi-0.dtd"
   xmlns:inkscape="http://www.inkscape.org/namespaces/inkscape"
   width="210mm"
   height="297mm"
   viewBox="0 0 210 297"
   version="1.1"
   id="svg4571"
   inkscape:version="0.92.1 r15371"
   sodipodi:docname="favicon-icon.svg"
   inkscape:export-filename="/home/samuel/Documentos/01 - WEB/Cipher/web/app/favicon.ico.png"
   inkscape:export-xdpi="96"
   inkscape:export-ydpi="96">
  <defs
     id="defs4565" />
  <sodipodi:namedview
     id="base"
     pagecolor="#ffffff"
     bordercolor="#666666"
     borderopacity="1.0"
     inkscape:pageopacity="0.0"
     inkscape:pageshadow="2"
     inkscape:zoom="11.845469"
     inkscape:cx="205.22456"
     inkscape:cy="975.17164"
     inkscape:document-units="mm"
     inkscape:current-layer="g4548"
     showgrid="false"
     inkscape:window-width="1920"
     inkscape:window-height="1005"
     inkscape:window-x="0"
     inkscape:window-y="0"
     inkscape:window-maximized="1" />
  <metadata
     id="metadata4568">
    <rdf:RDF>
      <cc:Work
         rdf:about="">
        <dc:format>image/svg+xml</dc:format>
        <dc:type
           rdf:resource="http://purl.org/dc/dcmitype/StillImage" />
        <dc:title></dc:title>
      </cc:Work>
    </rdf:RDF>
  </metadata>
  <g
     inkscape:label="Camada 1"
     inkscape:groupmode="layer"
     id="layer1">
    <g
       transform="matrix(1.1557848,0,0,1.1889051,-17.336941,-106.86209)"
       style="fill:#000000"
       id="g4548">
      <rect
         style="opacity:1;fill:none;fill-opacity:1;fill-rule:nonzero;stroke:none;stroke-width:0;stroke-linecap:butt;stroke-linejoin:miter;stroke-miterlimit:4;stroke-dasharray:none;stroke-dashoffset:0;stroke-opacity:1;paint-order:normal"
         id="rect5157"
         width="7.32547"
         height="7.1213984"
         x="57.074581"
         y="121.07272" />
      <path
         style="font-style:normal;font-weight:normal;font-size:medium;line-height:1.25;font-family:sans-serif;letter-spacing:0px;word-spacing:0px;fill:#000000;fill-opacity:1;stroke:none;stroke-width:0.17926221"
         d="m 62.627957,121.55692 c -0.491025,-0.28102 -1.064376,-0.5623 -1.317701,-0.33231 l -0.02469,-0.0137 -3.56533,6.00333 0.01896,0.0108 -0.121927,0.20531 0.08511,0.69659 1.082663,-0.43593 0.07781,-0.57217 0.341867,-0.11454 0.107742,-0.53836 0.392387,-0.30377 0.116476,-0.32162 0.198775,-0.16864 0.108425,-0.30741 0.237272,-0.0419 0.180315,-0.28948 c 0.117063,0.14446 0.271509,0.27178 0.465468,0.38063 0.412369,0.23144 0.844001,0.25533 1.295194,0.072 0.453241,-0.18222 0.838487,-0.54017 1.155431,-1.07385 0.316939,-0.53366 0.443165,-1.037 0.378898,-1.50967 -0.06225,-0.47157 -0.299369,-0.82295 -0.711743,-1.0544 -0.140676,-0.0782 -0.315022,-0.18497 -0.501582,-0.29101 z m 0.389929,1.55627 c 0.04636,0.0218 0.08907,0.0554 0.123977,0.10392 0.218577,0.29475 0.02745,0.8628 -0.332814,1.09757 -0.334658,0.21811 -0.71722,0.0753 -0.761981,-0.33553 l 0.512109,-0.86226 c 0,0 0.259901,-0.10208 0.45866,-0.003 z"
         id="path4530"
         inkscape:connector-curvature="0" />
    </g>
  </g>
</svg>
