<?xml version="1.0" encoding="UTF-8" standalone="no"?>
<!-- Created with Inkscape (http://www.inkscape.org/) -->

<svg
   xmlns:dc="http://purl.org/dc/elements/1.1/"
   xmlns:cc="http://creativecommons.org/ns#"
   xmlns:rdf="http://www.w3.org/1999/02/22-rdf-syntax-ns#"
   xmlns:svg="http://www.w3.org/2000/svg"
   xmlns="http://www.w3.org/2000/svg"
   xmlns:sodipodi="http://sodipodi.sourceforge.net/DTD/sodipodi-0.dtd"
   xmlns:inkscape="http://www.inkscape.org/namespaces/inkscape"
   width="210mm"
   height="297mm"
   viewBox="0 0 210 297"
   version="1.1"
   id="svg4571"
   inkscape:version="0.92.1 r15371"
   sodipodi:docname="favicon.svg">
  <defs
     id="defs4565" />
  <sodipodi:namedview
     id="base"
     pagecolor="#ffffff"
     bordercolor="#666666"
     borderopacity="1.0"
     inkscape:pageopacity="0.0"
     inkscape:pageshadow="2"
     inkscape:zoom="2.1188462"
     inkscape:cx="271.42857"
     inkscape:cy="885.71429"
     inkscape:document-units="mm"
     inkscape:current-layer="layer1"
     showgrid="false"
     inkscape:window-width="1920"
     inkscape:window-height="1005"
     inkscape:window-x="0"
     inkscape:window-y="0"
     inkscape:window-maximized="1" />
  <metadata
     id="metadata4568">
    <rdf:RDF>
      <cc:Work
         rdf:about="">
        <dc:format>image/svg+xml</dc:format>
        <dc:type
           rdf:resource="http://purl.org/dc/dcmitype/StillImage" />
        <dc:title></dc:title>
      </cc:Work>
    </rdf:RDF>
  </metadata>
  <g
     inkscape:label="Camada 1"
     inkscape:groupmode="layer"
     id="layer1">
    <g
       transform="matrix(1.1557848,0,0,1.1889051,-15.389455,-114.60079)"
       style="fill:#000000"
       id="g4548">
      <path
         sodipodi:nodetypes="sccsccscsccssscscscss"
         d="m 50.94287,124.64256 v 3.06958 h -0.956014 c 0,0 0.397675,-4.6431 -0.0066,-7.39789 -0.133732,-0.91118 1.855976,-0.72683 2.812667,-0.73083 0.7028,0 1.272963,0.27905 1.71049,0.83715 0.440973,0.55811 0.661459,1.29191 0.661459,2.20142 0,0.90951 -0.220486,1.64331 -0.661459,2.20142 -0.437527,0.5581 -1.00769,0.83715 -1.71049,0.83715 -0.423747,0 -0.788927,-0.0827 -1.09554,-0.24804 -0.303168,-0.16881 -0.55466,-0.42547 -0.754476,-0.76998 z m 3.234945,-2.02055 c 0,-0.69935 -0.144694,-1.24712 -0.434082,-1.64331 -0.285943,-0.39963 -0.680407,-0.59945 -1.18339,-0.59945 -0.502984,0 -0.89917,0.19982 -1.188558,0.59945 -0.285943,0.39619 -0.428915,0.94396 -0.428915,1.64331 0,0.69935 0.142972,1.24885 0.428915,1.64848 0.289388,0.39619 0.685574,0.59428 1.188558,0.59428 0.502983,0 0.897447,-0.19809 1.18339,-0.59428 0.289388,-0.39963 0.434082,-0.94913 0.434082,-1.64848 z"
         style="font-style:normal;font-weight:normal;font-size:medium;line-height:1.25;font-family:sans-serif;letter-spacing:0px;word-spacing:0px;fill:#000000;fill-opacity:1;stroke:none;stroke-width:0.26458332"
         id="path4530"
         inkscape:connector-curvature="0" />
      <ellipse
         transform="scale(1,-1)"
         ry="2.3731775"
         rx="2.129703"
         cy="-122.64117"
         cx="52.57056"
         id="ellipse4532"
         style="opacity:1;fill:#000000;fill-opacity:1;fill-rule:nonzero;stroke:none;stroke-width:0;stroke-linecap:butt;stroke-linejoin:miter;stroke-miterlimit:4;stroke-dasharray:none;stroke-dashoffset:0;stroke-opacity:1;paint-order:normal" />
      <path
         sodipodi:nodetypes="cccccc"
         inkscape:connector-curvature="0"
         id="path4534"
         d="m 49.985289,129.38161 v 1.29191 l 0.637688,0.82941 0.526068,-0.85311 0.191718,-1.26821 z"
         style="fill:#000000;fill-opacity:1;stroke:#000000;stroke-width:0.065;stroke-linecap:butt;stroke-linejoin:miter;stroke-miterlimit:4;stroke-dasharray:none;stroke-opacity:1" />
      <path
         inkscape:connector-curvature="0"
         id="path4536"
         d="m 49.952621,120.09219 v 10.23117 h 1.228447 v -10.23117 z"
         style="opacity:1;fill:#000000;fill-opacity:1;fill-rule:nonzero;stroke:none;stroke-width:0;stroke-linecap:butt;stroke-linejoin:miter;stroke-miterlimit:4;stroke-dasharray:none;stroke-dashoffset:0;stroke-opacity:1;paint-order:normal" />
      <path
         sodipodi:nodetypes="cccccccccccccc"
         inkscape:connector-curvature="0"
         id="path4538"
         d="m 50.893762,124.42893 -0.334865,3.9393 0.06408,3.1347 1.05265,-1.33429 -0.334865,-0.78704 0.350367,-0.3917 -0.271301,-0.76533 0.271301,-0.66973 -0.0956,-0.49454 0.12609,-0.35812 -0.0944,-0.47095 0.271137,-0.22358 0.01606,-0.74947 z"
         style="fill:#000000;fill-opacity:1;stroke:#000000;stroke-width:0;stroke-linecap:butt;stroke-linejoin:miter;stroke-miterlimit:4;stroke-dasharray:none;stroke-opacity:1" />
      <path
         sodipodi:nodetypes="ccssc"
         inkscape:connector-curvature="0"
         id="path4540"
         d="m 53.027456,123.08414 v -1.46987 c 0,0 0.385977,-0.47981 0.820905,-0.28968 0.503134,0.21994 0.690093,1.08298 0.407804,1.64153 -0.262215,0.51884 -0.859549,0.61108 -1.228709,0.11802 z"
         style="fill:#ffffff;fill-opacity:1;stroke:#000000;stroke-width:0.03072152;stroke-linecap:butt;stroke-linejoin:miter;stroke-miterlimit:4;stroke-dasharray:none;stroke-opacity:1" />
    </g>
  </g>
</svg>
