<?xml version="1.0" encoding="UTF-8" standalone="no"?>
<!-- Generator: Adobe Illustrator 16.0.0, SVG Export Plug-In . SVG Version: 6.00 Build 0)  -->

<svg
   xmlns:dc="http://purl.org/dc/elements/1.1/"
   xmlns:cc="http://creativecommons.org/ns#"
   xmlns:rdf="http://www.w3.org/1999/02/22-rdf-syntax-ns#"
   xmlns:svg="http://www.w3.org/2000/svg"
   xmlns="http://www.w3.org/2000/svg"
   xmlns:sodipodi="http://sodipodi.sourceforge.net/DTD/sodipodi-0.dtd"
   xmlns:inkscape="http://www.inkscape.org/namespaces/inkscape"
   version="1.1"
   id="Capa_1"
   x="0px"
   y="0px"
   width="612px"
   height="612px"
   viewBox="0 0 612 612"
   style="enable-background:new 0 0 612 612;"
   xml:space="preserve"
   sodipodi:docname="erase.svg"
   inkscape:version="0.92.1 r15371"><metadata
     id="metadata42"><rdf:RDF><cc:Work
         rdf:about=""><dc:format>image/svg+xml</dc:format><dc:type
           rdf:resource="http://purl.org/dc/dcmitype/StillImage" /></cc:Work></rdf:RDF></metadata><defs
     id="defs40" /><sodipodi:namedview
     pagecolor="#ffffff"
     bordercolor="#666666"
     borderopacity="1"
     objecttolerance="10"
     gridtolerance="10"
     guidetolerance="10"
     inkscape:pageopacity="0"
     inkscape:pageshadow="2"
     inkscape:window-width="798"
     inkscape:window-height="880"
     id="namedview38"
     showgrid="false"
     inkscape:zoom="0.38562092"
     inkscape:cx="272.46983"
     inkscape:cy="306"
     inkscape:window-x="538"
     inkscape:window-y="92"
     inkscape:window-maximized="0"
     inkscape:current-layer="backspace" /><g
     id="g5"><g
       id="backspace"><path
         d="M561,76.5H178.5c-17.85,0-30.6,7.65-40.8,22.95L0,306l137.7,206.55c10.2,12.75,22.95,22.95,40.8,22.95H561    c28.05,0,51-22.95,51-51v-357C612,99.45,589.05,76.5,561,76.5z M484.5,397.8l-35.7,35.7L357,341.7l-91.8,91.8l-35.7-35.7    l91.8-91.8l-91.8-91.8l35.7-35.7l91.8,91.8l91.8-91.8l35.7,35.7L392.7,306L484.5,397.8z"
         id="path2"
         style="fill:#80bdff;fill-opacity:1" /></g></g><g
     id="g7" /><g
     id="g9" /><g
     id="g11" /><g
     id="g13" /><g
     id="g15" /><g
     id="g17" /><g
     id="g19" /><g
     id="g21" /><g
     id="g23" /><g
     id="g25" /><g
     id="g27" /><g
     id="g29" /><g
     id="g31" /><g
     id="g33" /><g
     id="g35" /></svg>