<?xml version="1.0" encoding="UTF-8" standalone="no"?>
<!-- Generator: Adobe Illustrator 19.0.0, SVG Export Plug-In . SVG Version: 6.00 Build 0)  -->

<svg
   xmlns:dc="http://purl.org/dc/elements/1.1/"
   xmlns:cc="http://creativecommons.org/ns#"
   xmlns:rdf="http://www.w3.org/1999/02/22-rdf-syntax-ns#"
   xmlns:svg="http://www.w3.org/2000/svg"
   xmlns="http://www.w3.org/2000/svg"
   xmlns:sodipodi="http://sodipodi.sourceforge.net/DTD/sodipodi-0.dtd"
   xmlns:inkscape="http://www.inkscape.org/namespaces/inkscape"
   version="1.1"
   id="Capa_1"
   x="0px"
   y="0px"
   viewBox="0 0 512 512"
   style="enable-background:new 0 0 512 512;"
   xml:space="preserve"
   sodipodi:docname="export.svg"
   inkscape:version="0.92.1 r15371"><metadata
     id="metadata49"><rdf:RDF><cc:Work
         rdf:about=""><dc:format>image/svg+xml</dc:format><dc:type
           rdf:resource="http://purl.org/dc/dcmitype/StillImage" /></cc:Work></rdf:RDF></metadata><defs
     id="defs47" /><sodipodi:namedview
     pagecolor="#ffffff"
     bordercolor="#666666"
     borderopacity="1"
     objecttolerance="10"
     gridtolerance="10"
     guidetolerance="10"
     inkscape:pageopacity="0"
     inkscape:pageshadow="2"
     inkscape:window-width="798"
     inkscape:window-height="480"
     id="namedview45"
     showgrid="false"
     inkscape:zoom="0.4609375"
     inkscape:cx="256"
     inkscape:cy="256"
     inkscape:window-x="0"
     inkscape:window-y="0"
     inkscape:window-maximized="0"
     inkscape:current-layer="Capa_1" /><g
     id="g6"
     style="fill:#80bdff;fill-opacity:1"><g
       id="g4"
       style="fill:#80bdff;fill-opacity:1"><path
         d="M352,288.994v127.008H64v-288h96v-64H32c-17.664,0-32,14.336-32,32v352c0,17.696,14.336,32,32,32h352    c17.696,0,32-14.304,32-32V288.994H352z"
         id="path2"
         style="fill:#80bdff;fill-opacity:1" /></g></g><g
     id="g12"
     style="fill:#80bdff;fill-opacity:1"><g
       id="g10"
       style="fill:#80bdff;fill-opacity:1"><path
         d="M505.6,131.202l-128-96c-4.8-3.648-11.328-4.224-16.736-1.504c-5.44,2.72-8.864,8.256-8.864,14.304v48h-48    c-97.056,0-176,78.944-176,176c0,7.424,5.12,13.888,12.32,15.584c1.216,0.288,2.464,0.416,3.68,0.416    c5.952,0,11.552-3.328,14.304-8.832l3.776-7.52c24.544-49.12,73.888-79.648,128.8-79.648H352v48    c0,6.048,3.424,11.584,8.832,14.304c5.408,2.72,11.936,2.144,16.768-1.504l128-96c4.032-3.008,6.4-7.776,6.4-12.8    S509.632,134.21,505.6,131.202z"
         id="path8"
         style="fill:#80bdff;fill-opacity:1" /></g></g><g
     id="g14" /><g
     id="g16" /><g
     id="g18" /><g
     id="g20" /><g
     id="g22" /><g
     id="g24" /><g
     id="g26" /><g
     id="g28" /><g
     id="g30" /><g
     id="g32" /><g
     id="g34" /><g
     id="g36" /><g
     id="g38" /><g
     id="g40" /><g
     id="g42" /></svg>