<?xml version="1.0" encoding="UTF-8" standalone="no"?>
<!-- Generator: Adobe Illustrator 17.1.0, SVG Export Plug-In . SVG Version: 6.00 Build 0)  -->

<svg
   xmlns:dc="http://purl.org/dc/elements/1.1/"
   xmlns:cc="http://creativecommons.org/ns#"
   xmlns:rdf="http://www.w3.org/1999/02/22-rdf-syntax-ns#"
   xmlns:svg="http://www.w3.org/2000/svg"
   xmlns="http://www.w3.org/2000/svg"
   xmlns:sodipodi="http://sodipodi.sourceforge.net/DTD/sodipodi-0.dtd"
   xmlns:inkscape="http://www.inkscape.org/namespaces/inkscape"
   version="1.1"
   id="Capa_1"
   x="0px"
   y="0px"
   viewBox="0 0 270.37 270.37"
   style="enable-background:new 0 0 270.37 270.37;"
   xml:space="preserve"
   sodipodi:docname="minus.svg"
   inkscape:version="0.92.1 r15371"><metadata
     id="metadata59"><rdf:RDF><cc:Work
         rdf:about=""><dc:format>image/svg+xml</dc:format><dc:type
           rdf:resource="http://purl.org/dc/dcmitype/StillImage" /><dc:title /></cc:Work></rdf:RDF></metadata><defs
     id="defs57" /><sodipodi:namedview
     pagecolor="#ffffff"
     bordercolor="#666666"
     borderopacity="1"
     objecttolerance="10"
     gridtolerance="10"
     guidetolerance="10"
     inkscape:pageopacity="0"
     inkscape:pageshadow="2"
     inkscape:window-width="1405"
     inkscape:window-height="1001"
     id="namedview55"
     showgrid="false"
     inkscape:zoom="2.4688716"
     inkscape:cx="135.41626"
     inkscape:cy="123.43874"
     inkscape:window-x="0"
     inkscape:window-y="0"
     inkscape:window-maximized="0"
     inkscape:current-layer="g22"
     inkscape:snap-page="false"
     inkscape:snap-text-baseline="true"
     inkscape:snap-grids="false"
     inkscape:snap-to-guides="false" /><g
     id="g22"><path
       style="fill:#80bdff;stroke-width:2.0881381;fill-opacity:1"
       d="m 42.245239,231.14103 c 25.15788,24.45002 58.309161,37.91433 93.346031,37.91433 1.2153,0 2.44103,-0.0167 3.6626,-0.048 35.78024,-0.96263 69.04428,-15.80094 93.66343,-41.78155 24.62123,-25.98271 37.64913,-59.99639 36.68649,-95.77663 C 268.65996,96.305819 254.25807,63.45732 229.05424,38.96137 203.02769,13.66358 168.41054,0.09904032 132.04979,1.0950803 58.188169,3.0788103 -0.29013092,64.787463 1.6956791,138.65117 c 0.94593,35.14754 15.3457299,67.99186 40.5495599,92.48989 z M 132.89131,32.40668 c 0.93966,-0.0251 1.8835,-0.0376 2.82107,-0.0376 56.01848,0 101.07841,43.888486 102.58605,99.92367 0.7392,27.41725 -9.24628,53.4793 -28.1126,73.3897 -18.86424,19.9083 -44.35414,31.27821 -71.7714,32.01742 -0.93966,0.0251 -1.8835,0.0376 -2.82107,0.0376 -56.018481,0 -101.078411,-43.89267 -102.586051,-99.92367 C 31.485059,81.21272 76.294419,33.92683 132.89131,32.40667 Z"
       id="path4"
       inkscape:connector-curvature="0" /><path
       style="fill:#80bdff;stroke-width:2.0881381;fill-opacity:1"
       d="m 91.212962,151.43417 h 99.255468 c 7.49641,0 13.57289,-6.07648 13.57289,-13.57289 0,-7.49642 -6.07648,-13.5729 -13.57289,-13.5729 H 91.212962 c -7.49641,0 -13.5729,6.07648 -13.5729,13.5729 0,7.49641 6.07649,13.57289 13.5729,13.57289 z"
       id="path14"
       inkscape:connector-curvature="0" /></g><g
     id="g24" /><g
     id="g26" /><g
     id="g28" /><g
     id="g30" /><g
     id="g32" /><g
     id="g34" /><g
     id="g36" /><g
     id="g38" /><g
     id="g40" /><g
     id="g42" /><g
     id="g44" /><g
     id="g46" /><g
     id="g48" /><g
     id="g50" /><g
     id="g52" /></svg>