<?xml version="1.0" encoding="UTF-8" standalone="no"?>
<!-- Generator: Adobe Illustrator 17.1.0, SVG Export Plug-In . SVG Version: 6.00 Build 0)  -->

<svg
   xmlns:dc="http://purl.org/dc/elements/1.1/"
   xmlns:cc="http://creativecommons.org/ns#"
   xmlns:rdf="http://www.w3.org/1999/02/22-rdf-syntax-ns#"
   xmlns:svg="http://www.w3.org/2000/svg"
   xmlns="http://www.w3.org/2000/svg"
   xmlns:sodipodi="http://sodipodi.sourceforge.net/DTD/sodipodi-0.dtd"
   xmlns:inkscape="http://www.inkscape.org/namespaces/inkscape"
   version="1.1"
   id="Capa_1"
   x="0px"
   y="0px"
   viewBox="0 0 270.37 270.37"
   style="enable-background:new 0 0 270.37 270.37;"
   xml:space="preserve"
   sodipodi:docname="plus.svg"
   inkscape:version="0.92.1 r15371"><metadata
     id="metadata59"><rdf:RDF><cc:Work
         rdf:about=""><dc:format>image/svg+xml</dc:format><dc:type
           rdf:resource="http://purl.org/dc/dcmitype/StillImage" /><dc:title /></cc:Work></rdf:RDF></metadata><defs
     id="defs57" /><sodipodi:namedview
     pagecolor="#ffffff"
     bordercolor="#666666"
     borderopacity="1"
     objecttolerance="10"
     gridtolerance="10"
     guidetolerance="10"
     inkscape:pageopacity="0"
     inkscape:pageshadow="2"
     inkscape:window-width="1405"
     inkscape:window-height="1001"
     id="namedview55"
     showgrid="false"
     inkscape:zoom="1.6465655"
     inkscape:cx="41.191987"
     inkscape:cy="104.52939"
     inkscape:window-x="0"
     inkscape:window-y="0"
     inkscape:window-maximized="0"
     inkscape:current-layer="g22" /><g
     id="g22"><path
       style="fill:#80bdff;stroke-width:2.08812714;fill-opacity:1"
       d="M 135.185,1.1814976 C 61.294509,1.1814976 1.1814976,61.294509 1.1814976,135.185 c 0,73.89049 60.1130114,134.0035 134.0035024,134.0035 73.89049,0 134.0035,-60.11301 134.0035,-134.0035 0,-73.890491 -60.11301,-134.0035024 -134.0035,-134.0035024 z m 0,236.6851324 c -56.619583,0 -102.681589,-46.0642 -102.681589,-102.68163 0,-56.617498 46.062006,-102.681589 102.681589,-102.681589 56.61953,0 102.68163,46.062006 102.68163,102.681589 0,56.61953 -46.0621,102.68163 -102.68163,102.68163 z"
       id="path2"
       inkscape:connector-curvature="0" /><path
       style="fill:#80bdff;stroke-width:2.08812714;fill-opacity:1"
       d="m 184.81137,121.61 h -36.0535 V 85.556451 c 0,-7.496379 -6.07656,-13.572834 -13.57289,-13.572834 -7.49633,0 -13.57289,6.076455 -13.57289,13.572834 V 121.61 H 85.558546 c -7.496379,0 -13.572834,6.07656 -13.572834,13.57289 0,7.49633 6.076455,13.57289 13.572834,13.57289 h 36.053544 v 36.05771 c 0,7.49437 6.07656,13.57289 13.57289,13.57289 7.49633,0 13.57289,-6.07852 13.57289,-13.57289 v -36.05771 h 36.0535 c 7.49648,0 13.57291,-6.07656 13.57291,-13.57289 0,-7.49633 -6.07643,-13.57289 -13.57291,-13.57289 z"
       id="path10"
       inkscape:connector-curvature="0" /></g><g
     id="g24" /><g
     id="g26" /><g
     id="g28" /><g
     id="g30" /><g
     id="g32" /><g
     id="g34" /><g
     id="g36" /><g
     id="g38" /><g
     id="g40" /><g
     id="g42" /><g
     id="g44" /><g
     id="g46" /><g
     id="g48" /><g
     id="g50" /><g
     id="g52" /></svg>